# xmcd
#
# Track frame offsets:
#	150
#	14958
#	30780
#	45688
#	62741
#	72702
#	85895
#	103317
#	121025
#	138375
#	151513
#	165510
#	183526
#
# Disc length: 2608 seconds
#
# Revision: 1
# Processed by: cddbd v1.5.2PL0 Copyright (c) Steve Scherf et al.
# Submitted via: audiograbber 1.83.01
#
DISCID=ab0a2e0d
DTITLE=Denzel Curry - Taboo
DYEAR=2018
DGENRE=Rap
TTITLE0=Taboo
TTITLE1=Black Balloons
TTITLE2=Cash Maniac
TTITLE3=Sumo
TTITLE4=Super Saiyan Superman
TTITLE5=Switch It Up
TTITLE6=Mad I Got It
TTITLE7=Sirens
TTITLE8=Clout Cobain
TTITLE9=The Blackest Balloon
TTITLE10=Percs
TTITLE11=Vengeance
TTITLE12=Black Metal Terrorist
EXTD=
EXTT0=
EXTT1=
EXTT2=
EXTT3=
EXTT4=
EXTT5=
EXTT6=
EXTT7=
EXTT8=
EXTT9=
EXTT10=
EXTT11=
EXTT12=
PLAYORDER=
